<?xml version="1.0" encoding="UTF-8" standalone="no"?>

<svg xmlns:dc="http://purl.org/dc/elements/1.1/" 
		xmlns:svg="http://www.w3.org/2000/svg" 
		xmlns="http://www.w3.org/2000/svg" 
		xmlns:xlink="http://www.w3.org/1999/xlink" 
		height="60" width="60" version="1.1"
		style="cursor: wait">
	<defs id="defs4">
		<linearGradient id="linearGradient5854">
			<stop id="stop5856" style="stop-color:#000000;stop-opacity:1" offset="0" />
			<stop id="stop5858" style="stop-color:#000000;stop-opacity:0" offset="1" />
		</linearGradient>
		<linearGradient id="linearGradient5734">
			<stop id="stop5736" style="stop-color:#ffffff;stop-opacity:1" offset="0" />
			<stop id="stop5738" style="stop-color:#ffffff;stop-opacity:0" offset="1" />
		</linearGradient>
		<linearGradient id="linearGradient5658">
			<stop id="stop5660" style="stop-color:#ffffff;stop-opacity:1" offset="0" />
			<stop id="stop5662" style="stop-color:#ffffff;stop-opacity:0" offset="1" />
		</linearGradient>
		<linearGradient id="linearGradient5630">
			<stop id="stop5632" style="stop-color:#ffffff;stop-opacity:1" offset="0" />
			<stop id="stop5634" style="stop-color:#cbcbc7;stop-opacity:1" offset="0.5" />
			<stop id="stop5636" style="stop-color:#b1b1ab;stop-opacity:1" offset="0.62443238" />
			<stop id="stop5638" style="stop-color:#979890;stop-opacity:1" offset="1" />
		</linearGradient>

		<radialGradient cx="-3361.3049" cy="1558.1061" r="1056.2135" fx="-3361.3049" fy="1558.1061" id="radialGradient5957" xlink:href="#linearGradient5854" gradientUnits="userSpaceOnUse" gradientTransform="matrix(0.1382578,0,0,0.02837215,614.75975,218.60812)" />


		<radialGradient cx="-3784.3914" cy="-153.32759" r="832.58527" fx="-3784.3914" fy="-153.32759" id="radialGradient5961" xlink:href="#linearGradient5630" gradientUnits="userSpaceOnUse" gradientTransform="matrix(0.21882058,0,0,0.21882058,785.77397,-35.86761)" />
		<linearGradient x1="-3345.823" y1="992.15454" x2="-3063.7073" y2="804.65088" id="linearGradient5965" xlink:href="#linearGradient4907" gradientUnits="userSpaceOnUse" />

		<linearGradient x1="-4276.4609" y1="863.13831" x2="-4527.6123" y2="787.44867" id="linearGradient5967" xlink:href="#linearGradient5508" gradientUnits="userSpaceOnUse" gradientTransform="translate(8,0)" />

		<linearGradient x1="-3409.9175" y1="292.79431" x2="-2711.1384" y2="-101.45518" id="linearGradient5971" xlink:href="#linearGradient5124" gradientUnits="userSpaceOnUse" />
		<linearGradient x1="-3790.2319" y1="806.65393" x2="-3663.7288" y2="952.61926" id="linearGradient5973" xlink:href="#linearGradient4959" gradientUnits="userSpaceOnUse" />
		<linearGradient x1="-3220.2471" y1="298.90686" x2="-2907.1675" y2="1269.1096" id="linearGradient5975" xlink:href="#linearGradient5068" gradientUnits="userSpaceOnUse" />
		<linearGradient x1="-3973.7024" y1="157.84912" x2="-4221.4136" y2="1465.2144" id="linearGradient5977" xlink:href="#linearGradient5080" gradientUnits="userSpaceOnUse" />
		<radialGradient cx="-3530.0454" cy="525.453" r="781.8631" fx="-3530.0454" fy="525.453" id="radialGradient5979" xlink:href="#linearGradient5097" gradientUnits="userSpaceOnUse" gradientTransform="matrix(1.3587,2.70909e-8,-2.44885e-8,1.22818,1239.04,-100.309)" />
		<linearGradient x1="-2736.8491" y1="414.98041" x2="-3133.3882" y2="215.49451" id="linearGradient5981" xlink:href="#linearGradient5160" gradientUnits="userSpaceOnUse" />
		<linearGradient x1="-3211.2363" y1="307.93921" x2="-3031.2126" y2="570.6767" id="linearGradient5983" xlink:href="#linearGradient5178" gradientUnits="userSpaceOnUse" />

		<linearGradient x1="-3629.6587" y1="326.43042" x2="-3884.251" y2="-34.815254" id="linearGradient5987" xlink:href="#linearGradient5258" gradientUnits="userSpaceOnUse" />
		<linearGradient x1="-4238.6157" y1="278.26431" x2="-4145.7241" y2="577.58215" id="linearGradient5989" xlink:href="#linearGradient5280" gradientUnits="userSpaceOnUse" />
		<linearGradient x1="-3750.074" y1="894.10217" x2="-3984.0237" y2="298.90692" id="linearGradient5991" xlink:href="#linearGradient5346" gradientUnits="userSpaceOnUse" gradientTransform="translate(10.3213,-3.44043)" />
		<radialGradient cx="-3717.6621" cy="184.12601" r="209.63293" fx="-3717.6621" fy="184.12601" id="radialGradient5993" xlink:href="#linearGradient5360" gradientUnits="userSpaceOnUse" gradientTransform="matrix(2.28011,-0.631851,0.175049,0.631685,4726.21,-2263.63)" />
		<linearGradient x1="-3512.6841" y1="1052.3622" x2="-3502.3628" y2="684.23566" id="linearGradient5995" xlink:href="#linearGradient5386" gradientUnits="userSpaceOnUse" />
		<linearGradient x1="-3922.0957" y1="-265.3244" x2="-3509.2437" y2="-258.44354" id="linearGradient5997" xlink:href="#linearGradient5412" gradientUnits="userSpaceOnUse" />
		<linearGradient x1="-4262.6987" y1="61.516926" x2="-4114.7603" y2="154.40866" id="linearGradient5999" xlink:href="#linearGradient5442" gradientUnits="userSpaceOnUse" />
		<linearGradient x1="-1310.8621" y1="1192.2692" x2="-3170.1536" y2="-129.71219" id="linearGradient6001" xlink:href="#linearGradient5658" gradientUnits="userSpaceOnUse" />
		<linearGradient x1="-2893.4058" y1="670.47388" x2="-2979.4167" y2="-543.99963" id="linearGradient6003" xlink:href="#linearGradient5704" gradientUnits="userSpaceOnUse" />
		<linearGradient x1="-4405.7192" y1="556.0802" x2="-4478.7017" y2="667.98688" id="linearGradient6005" xlink:href="#linearGradient5734" gradientUnits="userSpaceOnUse" />
		<linearGradient x1="-4449.3359" y1="1511.4786" x2="-4381.3916" y2="191.16696" id="linearGradient6007" xlink:href="#linearGradient5744" gradientUnits="userSpaceOnUse" />
		<radialGradient cx="-4031.0747" cy="-149.41872" r="192.83611" fx="-4031.0747" fy="-149.41872" id="radialGradient6009" xlink:href="#linearGradient5786" gradientUnits="userSpaceOnUse" gradientTransform="matrix(1.36585,-0.113541,0.0588049,0.7074,1483.57,-501.412)" />
	</defs>
	<g id="layer1" transform="scale(0.2)" >
		<path d="m 296.0629,262.81551 a 146.02976,29.96702 0 0 1 -292.0594969,0 146.02976,29.96702 0 1 1 292.0594969,0 z" id="path5852" style="fill:url(#radialGradient5957);fill-opacity:1;stroke:none" />
		<g id="g5818" transform="matrix(1.0383474,0,0,1.0383474,145.82305,134.72501)">
			<path d="m 113.49365,1.8011798 a 115.24683,115.24683 0 0 1 -230.49364,0 115.24683,115.24683 0 1 1 230.49364,0 z" id="path4839" style="fill:url(#radialGradient5961);fill-opacity:1;stroke:none" />
			<g id="rotateGroup">
				<animateTransform attributeName="transform" attributeType="XML" type="rotate" from="0" to="360" begin="0s" dur="5s" fill="freeze" id="animateTransform47" repeatCount="indefinite" />
				<path style="opacity:0.44015443;fill:none;stroke:url(#radialGradient5963);stroke-width:20;stroke-linecap:butt;stroke-linejoin:miter;stroke-miterlimit:4;stroke-opacity:1;stroke-dasharray:none;filter:url(#filter5598)" id="path5548" d="m -2792.3698,828.98148 c 10.619,7.0793 72.0592,-213.07619 75.4154,-226.2462 3.5029,-13.74589 48.655,-60.81887 48.655,-60.81887" transform="matrix(0.12484845,0,0,0.12484845,444.37205,-66.8494)" />
				<path style="fill:none;stroke:#36372e;stroke-width:13;stroke-linecap:butt;stroke-linejoin:miter;stroke-miterlimit:4;stroke-opacity:1;stroke-dasharray:none;filter:url(#filter4945)" id="path4923" d="m -4001.2258,1081.0463 197.825,-275.23478 c 0,0 457.6665,-6.03027 463.6665,-1.3584 6,4.67188 201.0936,267.25008 201.0936,267.25008" transform="matrix(0.12484845,0,0,0.12484845,444.37205,-66.8494)" />
				<path style="fill:url(#linearGradient5965);fill-opacity:1;stroke:none;filter:url(#filter4989)" id="path4979" d="m -3316.5793,790.88913 c 0,0 172.0218,247.71127 189.2239,258.03257 17.2022,10.3214 282.1157,-130.73648 292.437,-144.49822 10.3213,-13.76174 24.0831,-30.96391 24.0831,-30.96391 0,0 0,55.04696 -24.0831,75.68956 -24.083,20.64261 -282.1156,144.49827 -282.1156,144.49827 l -227.0688,-306.19871 z" transform="matrix(0.12484845,0,0,0.12484845,444.37205,-66.8494)" />
				<path style="opacity:0.67181468;fill:none;stroke:url(#linearGradient5967);stroke-width:19.60000038;stroke-linecap:butt;stroke-linejoin:miter;stroke-miterlimit:4;stroke-opacity:1;stroke-dasharray:none;filter:url(#filter5544)" id="path5450" d="m -4419.8398,570.7013 c 15.3183,103.21304 53.4954,247.7113 96.3322,350.92435 l -3.4404,86.01085" transform="matrix(0.12484845,0,0,0.12484845,444.37205,-66.8494)" />
				<path style="opacity:0.46559849;fill:url(#linearGradient5971);fill-opacity:1;stroke:none;filter:url(#filter5138)" id="path5107" d="m -3272.25,-320.09375 c 2.6525,22.03006 43.0947,66.72069 48.8438,78.21875 7.2983,14.59653 94.8836,63.2662 131.375,87.59375 36.4912,24.32755 19.447,14.60521 24.3124,36.5 4.8655,21.894794 31.6535,75.402657 46.25,121.625 14.5966,46.222342 21.8844,145.95845 26.75,172.71875 4.8656,26.7603 -14.6005,63.24445 -34.0624,92.4375 -19.4622,29.19306 -162.9802,48.67801 -184.875,43.8125 -21.8949,-4.86551 -347.9063,-231.125 -347.9063,-231.125 0,0 245.7218,231.11191 311.4063,272.46875 65.6844,41.35683 53.5086,-12.17049 90,-19.46875 36.4913,-7.29827 226.2511,-72.96123 274.9062,-85.125 48.6551,-12.16378 36.4952,-41.36389 34.0625,-99.75 -1.7505,-42.01209 24.2082,-84.018706 33.4687,-130.5625 -110.8861,-156.37943 -269.459,-276.54996 -454.5312,-339.34375 z" transform="matrix(0.12484845,0,0,0.12484845,444.37205,-66.8494)" />
				<path style="fill:#000000" id="path4837" d="m -1.032619,-112.86776 c -12.55331,0 -24.63199,2.01948 -35.93681,5.74693 -1.6807,3.18469 -3.47244,6.88645 -4.68574,9.687461 -0.25281,0.583659 -0.53342,1.229759 -0.62423,1.435749 -0.11413,0.25882 -0.41376,0.50277 -0.96367,0.79591 -0.43774,0.23333 -1.25555,0.66973 -1.81814,0.96758 -0.56255,0.29786 -1.28884,0.70987 -1.615211,0.91685 -0.326382,0.207 -0.637782,0.37845 -0.690562,0.37845 -0.05278,0 -0.506335,0.24355 -1.006592,0.54232 -0.500264,0.29874 -1.470871,0.86896 -2.157538,1.26798 -1.144381,0.665 -2.337878,1.39829 -4.77935,2.92614 -1.230691,0.77018 -7.136607,4.68523 -8.115135,5.38019 -0.431789,0.30666 -1.38689,1.00083 -2.122457,1.5411 -0.735523,0.54028 -1.591027,1.15342 -1.90001,1.36553 -0.30902,0.21209 -0.846179,0.61191 -1.193876,0.88954 -0.347691,0.27763 -1.072885,0.84429 -1.611325,1.25629 -0.538439,0.412 -1.630528,1.27357 -2.426758,1.91564 -0.796194,0.64208 -1.780685,1.42862 -2.188741,1.74788 -0.408012,0.31926 -0.839466,0.67567 -0.959775,0.79201 -0.242023,0.23404 -0.595413,0.3082 -1.981954,0.41356 -0.515013,0.0392 -1.161094,0.0934 -1.435745,0.12095 -0.274695,0.0275 -0.892662,0.0801 -1.373342,0.11704 -0.480681,0.0369 -1.323395,0.12186 -1.87274,0.19118 -0.549302,0.0693 -1.324028,0.15768 -1.720581,0.19507 -0.39651,0.0374 -1.295432,0.1538 -1.997577,0.2575 -0.702101,0.1037 -1.556695,0.21511 -1.90001,0.2497 -0.14774,0.0148 -0.528896,0.0694 -1.002712,0.14045 -16.06974,19.25148 -25.94652,43.85009 -26.56928,70.73834975 0.64129,0.54567 1.23896,1.04959 1.59959,1.33822 0.30032,0.24033 1.09738,0.88642005 1.77129,1.43576005 0.67396,0.54934 1.34557,1.08305 1.4943,1.18606 0.14872,0.103 0.7316,0.55245 1.29532,0.99879 0.56368,0.44633 1.37274,1.05285 1.79468,1.34992 1.47184,1.0363 1.39862,0.90414 1.8298,3.39432 0.0773,0.44633 0.21621,1.17669 0.30823,1.6230202 0.092,0.44634 0.2599,1.28907 0.37456,1.87274 0.64577,3.2886 0.87338,4.33371 1.58008,7.30363 1.35788,5.70622 3.21156,12.08553 5.138279,17.66605 0.272657,0.78967 0.58081,1.68858 0.682788,1.99759 0.195693,0.59302 0.669508,1.8832 1.677651,4.55695 0.336604,0.89268 0.70157,1.87586 0.811511,2.18486 0.109972,0.30899 0.283103,0.6851 0.382365,0.83882 0.163203,0.25283 0.137737,0.41374 -0.269219,1.68546 -0.714026,2.2313 -0.786767,2.46834 -1.135324,3.65572 -0.181432,0.61799 -0.384368,1.26408 -0.448693,1.43575 -0.06428,0.17167 -0.219229,0.7054 -0.34724,1.18606 -0.128003,0.48066 -0.388472,1.43576 -0.577409,2.12243 -0.188937,0.68667 -0.388175,1.41703 -0.440882,1.62301 -0.0527,0.20601 -0.219119,0.82402 -0.370629,1.37334 -0.151511,0.54933 -0.303291,1.11116 -0.335548,1.24848 -0.03057,0.13028 -0.06902,0.2805 -0.08971,0.35505 14.045503,22.97971 35.954576,40.63049 61.98334,49.2137 0.0347,-0.0233 0.0539,-0.0345 0.0897,-0.0585 0.98223,-0.6564 2.00403,-1.33433 2.27072,-1.506 0.51569,-0.33201 1.40074,-0.95154 2.45404,-1.71666 0.35422,-0.2573 1.11268,-0.80198 1.68546,-1.20946 0.57277,-0.40751 1.68549,-1.22215 2.47355,-1.8103 0.78807,-0.58817 1.60268,-1.1743 1.81028,-1.30311 0.20766,-0.12882 0.40656,-0.27611 0.44088,-0.32383 0.0696,-0.0967 1.469359,-1.17604 2.079519,-1.60352 0.42975,-0.30109 0.32359,-0.30124 4.91199,0.10143 6.95737,0.61058 15.707311,0.84875 23.311551,0.63596 5.57189,-0.15591 8.13287,-0.29644 13.5812,-0.74909 l 2.87152,-0.23799 0.43695,0.29651 c 0.53589,0.3654 1.28853,0.92064 3.13683,2.3097 1.27948,0.96157 4.00605,2.94136 5.40747,3.92491 1.40431,0.98558 3.39709,2.30547 4.88859,3.26166 26.00244,-8.56511 47.893751,-26.1801 61.94826,-49.11615 -0.31622,-1.24983 -0.87225,-3.39772 -0.9637,-3.71034 -0.0602,-0.206 -0.19867,-0.68355 -0.30819,-1.06122 -0.10952,-0.37766 -0.37006,-1.27656 -0.58134,-1.99757 -0.21123,-0.721 -0.4325,-1.50754 -0.49158,-1.74788 -0.0591,-0.24033 -0.2295,-0.83024 -0.37843,-1.31091 -0.14896,-0.48066 -0.3474,-1.12675 -0.43701,-1.43576 -0.14574,-0.50282 -0.40201,-1.28677 -0.8661,-2.63351 -0.14366,-0.41684 -0.12004,-0.5327 0.33943,-1.62303 0.27214,-0.64579 0.68384,-1.70808 0.91293,-2.36042 0.58118,-1.65474 1.03942,-2.88944 1.18218,-3.18364 0.0666,-0.13733 0.36995,-0.98006 0.67493,-1.87272 0.30502,-0.89267 0.64412,-1.87585 0.75304,-2.18485 0.24495,-0.6951 1.25883,-3.92291 1.86488,-5.9303 0.24882,-0.82401 0.60001,-1.97573 0.78031,-2.55939 0.18031,-0.58367 0.39999,-1.37021 0.48382,-1.74788 0.0838,-0.37767 0.38617,-1.52781 0.67494,-2.5555 0.28879,-1.02769 0.5716,-2.09514 0.62815,-2.37211 0.0565,-0.27699 0.30349,-1.31793 0.54621,-2.3136 0.43564,-1.78704 0.75394,-3.23055 1.15095,-5.18121 0.11182,-0.54934 0.28329,-1.36397 0.37844,-1.8103 0.22843,-1.07126 0.75869,-4.0219902 0.86225,-4.7910602 0.0915,-0.67962 0.36451,-0.99523 1.56058,-1.79861 0.37768,-0.25367 0.77431,-0.5474 0.88176,-0.65155 0.1074,-0.10414 0.46162,-0.3839 0.78812,-0.62423 0.32645,-0.24033 0.85682,-0.65 1.17822,-0.90906 0.32142,-0.25906 0.64144,-0.51371 0.7101,-0.56572 0.51358,-0.38908 2.0797,-1.6382 2.44626,-1.95076005 0.24726,-0.21087 0.72492,-0.60707 1.05729,-0.88174 0.27493,-0.22722 0.65877,-0.55858 0.96756,-0.82712 C 112.98743,-27.79874 103.11956,-52.3694 87.07139,-71.60533 c -0.0957,-0.014 -0.19521,-0.0275 -0.26922,-0.039 -0.206,-0.032 -0.65544,-0.0933 -0.99879,-0.13655 -0.343319,-0.0432 -1.151549,-0.15524 -1.798609,-0.2497 -0.64702,-0.0945 -1.21982,-0.1453 -1.27189,-0.11314 -0.052,0.0322 -0.13174,7.3e-4 -0.17554,-0.0702 -0.0439,-0.0709 -0.13031,-0.0986 -0.19509,-0.0585 -0.0648,0.04 -0.5252,0.0164 -1.02218,-0.0546 -1.234278,-0.17648 -3.823598,-0.43395 -5.836678,-0.58132 -1.3973,-0.10229 -1.19471,0.0192 -4.77934,-2.86371 -0.85385,-0.68667 -2.09707,-1.66985 -2.766203,-2.18485 -0.66908,-0.515 -1.42979,-1.10491 -1.68934,-1.31091 -1.52112,-1.20726 -6.68156,-4.83623 -9.71477,-6.83155 -3.09971,-2.03904 -8.75858,-5.49842 -11.07638,-6.77303 -0.34336,-0.18881 -1.21417,-0.67075 -1.93517,-1.06902 -0.72101,-0.39826 -1.7233,-0.94194 -2.22776,-1.20947 -0.83003,-0.44019 -0.94008,-0.5458 -1.17047,-1.10412 -0.289,-0.700369 -0.45854,-1.082969 -1.27968,-2.926139 -0.77045,-1.729311 -2.51346,-5.344411 -3.7884,-7.884951 -11.35304,-3.76292 -23.49302,-5.80155 -36.10851,-5.80155 z m -41.18046,17.2837 3.0822,0.078 c 2.67624,0.0689 7.0286,0.28531 10.32342,0.5111 1.84719,0.12658 6.66373,0.61452 8.55208,0.86614 0.24037,0.032 0.91452,0.1152 1.49819,0.18727 1.26896,0.15669 2.49542,0.326 3.68303,0.5072 0.48069,0.0733 1.23915,0.18884 1.68546,0.2536 0.44631,0.0648 1.1205,0.1702 1.49819,0.23799 0.37768,0.0678 1.05801,0.17971 1.50987,0.24579 0.4518497,0.0661 1.2383895,0.21056 1.7478995,0.31993 0.50947,0.10936 1.4022,0.27688 1.98587,0.37454 0.58365,0.0977 1.73538,0.32255 2.5593705,0.49939 0.82401,0.17686 1.77759,0.37796 2.11853,0.44478 0.34091,0.0668 0.65382,0.1602 0.69448,0.21068 0.0927,0.11518 -0.0965,27.57802 -0.22239,32.29283 l -0.0936,3.48406 -0.8115,0.49939 c -0.44632,0.27381 -1.65422,1.0145 -2.6842505,1.64644 -4.06238,2.49246 -11.5489095,7.36264 -15.4031495,10.01908 -3.38058,2.32997 -4.57762,3.16687 -7.44409,5.20853 -6.15272,4.3823 -12.87037,9.4221 -17.9392,13.45631 -1.100009,0.8755 -2.035076,1.58686 -2.079484,1.58011 -0.04448,-0.006 -0.812304,-0.23575 -1.704965,-0.50719 -0.892662,-0.27145 -2.578117,-0.76838 -3.745473,-1.10414 -1.167311,-0.33574 -2.965119,-0.86128 -3.995145,-1.16654 -3.314331,-0.9823 -5.930099,-1.73196 -8.364823,-2.39944 -1.210656,-0.33188 -2.452261,-0.67838 -4.619416,-1.29139 -2.735102,-0.7737 -3.157572,-0.89252 -5.430898,-1.51768 -1.270345,-0.34934 -2.67489,-0.73844 -3.121202,-0.86614 -0.446348,-0.12772 -1.373342,-0.38049 -2.060009,-0.56182 -2.30969,-0.60991 -2.618601,-0.69454 -3.19922,-0.87784 -0.318229,-0.10046 -0.665622,-0.18337 -0.772542,-0.18337 -0.106877,0 -0.225002,-0.0504 -0.261372,-0.10925 -0.06793,-0.10995 0.135858,-1.89963 0.491586,-4.32288 0.110881,-0.75533 0.247264,-1.71042 0.304302,-2.12241 0.177507,-1.28177 0.514598,-3.26597 0.795932,-4.68182 0.102312,-0.515 0.284763,-1.4701 0.401832,-2.12242 0.117105,-0.65234 0.287893,-1.47592 0.382365,-1.82982 0.0945,-0.3539 0.171654,-0.77233 0.171654,-0.92856 0,-0.15622 0.05248,-0.45629 0.117033,-0.66716 0.06458,-0.21088 0.181766,-0.71943 0.261409,-1.13143 0.216935,-1.12195 0.475817,-2.28274 0.694485,-3.12122 0.292269,-1.1206 0.384018,-1.49451 0.733485,-2.99636 0.175738,-0.75534 0.381986,-1.54188 0.456497,-1.74788 0.07448,-0.206 0.180565,-0.57118 0.237989,-0.81151 0.304113,-1.2731 0.403681,-1.6445 0.678856,-2.5594 0.165212,-0.54933 0.393911,-1.33587 0.507165,-1.74787 0.113299,-0.412 0.285033,-0.93326 0.382366,-1.15875 0.09734,-0.22551 0.175585,-0.47682 0.175585,-0.55792 0,-0.14666 1.459282,-4.60531 2.052169,-6.27364 0.175352,-0.49336 0.440874,-0.98266 0.612536,-1.12363 3.588108,-2.94637 8.849456,-7.00258 11.630436,-8.96568 1.125401,-0.79441 7.7799,-5.25414 8.739376,-5.85617 0.343352,-0.21543 0.905183,-0.56831 1.248498,-0.78811 0.495853,-0.31744 4.186354,-2.52518 5.368495,-3.21095 1.439669,-0.83517 3.379898,-1.90742 5.469908,-3.02367 l 1.10023,-0.58913 z m 82.38436,0.008 1.34214,0.70618 c 1.27525,0.6719 2.50836,1.35584 4.46334,2.47746 0.48064,0.27578 1.09866,0.62298 1.37331,0.7686 2.03511,1.07904 10.83772,6.71323 13.42123,8.59114 0.44631,0.32443 1.03621,0.74284 1.3109,0.92855 1.73039,1.16999 5.54419,4.06645 9.191952,6.97982 2.95049,2.35644 2.7992,2.17105 3.42943,4.15901 0.16329,0.51499 0.3475,1.04872 0.40969,1.18605 0.20206,0.4465 1.26532,3.86241 1.26408,4.06148 0,0.10644 0.0485,0.24689 0.10926,0.31212 0.0909,0.0977 1.01176,3.25858 1.52546,5.23974 0.0712,0.27466 0.18738,0.66793 0.25751,0.87394 0.19049,0.5595 0.90535,3.51415 1.08851,4.49845 0.0516,0.27717 0.13269,0.56414 0.17946,0.63984 0.0785,0.12707 0.35155,1.27988 0.58915,2.47746 0.0544,0.27467 0.16363,0.8084 0.24187,1.18606 0.0783,0.37767 0.186488,0.93949 0.241908,1.24849 0.0554,0.309 0.21549,1.12364 0.35504,1.8103 0.13953,0.68667 0.35125,1.78221 0.4682,2.43454 0.11688,0.65234 0.2896,1.53246 0.38622,1.95857 0.0966,0.4261 0.17558,0.94677 0.17558,1.15485 0,0.20805 0.0557,0.61623 0.12096,0.90904 0.0653,0.29283 0.20934,1.18061 0.31992,1.97027 0.11054,0.78967 0.24778,1.77285 0.30822,2.18485 0.12171,0.83016 0.3286,2.33548 0.43304,3.14852 0.0638,0.49627 0.0467,0.53285 -0.277,0.60863 -0.59416,0.13911 -1.55711,0.38974 -2.555478,0.66716 -0.52945,0.14712 -1.06318,0.29057 -1.18607,0.31602 -0.27997,0.058 -1.43272,0.36136 -2.3058,0.60864 -2.40167,0.68025 -3.41049,0.96324 -4.34627,1.20947 -0.58368,0.15359 -1.39828,0.37938 -1.8103,0.50329 -0.41202,0.12392 -1.70421,0.48502 -2.871532,0.80372 -1.16731,0.31869 -2.57186,0.71304 -3.1212,0.87394 -0.54935,0.16089 -2.93705,0.83403 -5.30605,1.49818 -2.369,0.66416 -4.81293,1.37024 -5.43089,1.5684 -0.61801,0.19817 -1.82592,0.55268 -2.68425,0.78812 -0.85833,0.23541 -2.34719,0.66171 -3.30848,0.94805 -0.96137,0.28637 -1.83098,0.54495 -1.93517,0.57353 -0.10421,0.0286 -0.69411,-0.35156 -1.31091,-0.84663 -12.41478,-9.96428 -29.5861,-22.03451 -42.53822,-29.90119 l -2.83248,-1.72057 -0.008,-17.87284 -0.004,-17.86894 0.71786,-0.13264 c 0.39482,-0.0727 1.11114,-0.22185 1.59183,-0.33164 0.48064,-0.10976 1.6043,-0.338 2.49697,-0.50329 0.89266,-0.16528 2.07246,-0.3872 2.62181,-0.49549 0.54934,-0.10828 1.33587,-0.2493 1.74789,-0.31212 0.41198,-0.0628 1.08616,-0.17286 1.49819,-0.2458 1.63331,-0.28919 3.47628,-0.55486 6.42968,-0.92856 0.85832,-0.10861 1.92577,-0.25579 2.37212,-0.32382 0.95779,-0.146 5.49873,-0.59531 6.92908,-0.68667 0.54934,-0.0351 1.25162,-0.0911 1.56062,-0.12485 0.30898,-0.0338 1.06745,-0.09 1.68545,-0.12485 0.61798,-0.0348 1.48883,-0.0921 1.93514,-0.12485 1.4247,-0.10452 3.48056,-0.18518 6.39849,-0.25747 l 2.84033,-0.0703 z m -125.624839,62.93921 c 0.04914,3.9e-4 0.707728,0.17402 1.46306,0.38626 0.755332,0.21224 1.598081,0.44462 1.87274,0.515 0.27465,0.0704 0.740654,0.21126 1.033906,0.31212 0.293215,0.10085 0.709155,0.20793 0.924656,0.24189 0.215495,0.034 0.536023,0.12075 0.713946,0.19118 0.177958,0.0705 0.829471,0.25725 1.44748,0.41356 0.618004,0.1563 1.404537,0.36916 1.747897,0.47599 0.518558,0.16134 2.841905,0.82807 4.681819,1.34211 0.240319,0.0671 1.11114,0.32437 1.935136,0.56962 0.823997,0.24525 1.608084,0.46544 1.740048,0.4916 0.132008,0.0262 0.581451,0.15704 0.998788,0.2926 0.417375,0.13558 1.06591,0.327 1.443594,0.42527 0.906238,0.23582 5.132544,1.4962 6.554516,1.95466 0.61801,0.19925 1.994446,0.61624 3.058805,0.92466 1.064315,0.30842 2.890237,0.85323 4.057586,1.20947 1.167319,0.35623 2.403332,0.72868 2.746647,0.83102 0.343359,0.10235 0.667397,0.22699 0.717877,0.27311 0.05052,0.0461 0.461811,1.51311 0.912957,3.26166 0.451139,1.74856 1.045151,3.96628 1.322641,4.92762 0.27743,0.96133 0.65969,2.30969 0.85051,2.99636 0.57153,2.0565798 1.86338,6.5061798 2.39164,8.2399998 0.27197,0.89266 0.66468,2.18484995 0.87395,2.87150995 0.2092,0.68667005 0.72168,2.31594005 1.13532,3.62061005 0.41364,1.30466 0.8652,2.7373 1.0066,3.18363 1.31701,4.1577902 3.99885,12.0228302 5.76643,16.9169702 1.38345,3.83061 2.78438,7.62956 3.00025,8.13076 0.18173,0.42178 0.14971,0.47532 -3.48405,5.47772 -0.44892,0.618 -1.39715,1.93827 -2.1068,2.93394 -2.05651,2.8854 -3.17157,4.44262 -4.38532,6.12928 -0.62338,0.8663 -1.42798,1.98993 -1.78687,2.49696 -0.35894,0.50705 -1.21678,1.71121 -1.90394,2.67255 -0.6872,0.96133 -2.017878,2.84342 -2.957356,4.18242 -0.939479,1.33899 -1.950941,2.77163 -2.251174,3.18362 -1.089904,1.4956 -3.589659,5.02607 -4.506242,6.36728 -1.103707,1.61503 -1.156071,1.67508 -1.400656,1.59181 -0.384892,-0.13104 -2.652219,-1.03519 -3.035371,-1.20946 -0.21893,-0.0996 -0.959782,-0.41536 -1.646449,-0.70226 -0.686675,-0.28692 -1.388929,-0.59771 -1.560583,-0.69058 -0.171698,-0.0929 -0.84588,-0.39151 -1.498186,-0.66326 -0.652335,-0.27176 -1.523156,-0.65818 -1.935172,-0.86222 -0.412017,-0.20407 -1.11427,-0.52438 -1.560583,-0.7101 -0.446348,-0.18569 -1.12053,-0.49592 -1.498178,-0.69055 -0.377691,-0.19466 -1.136154,-0.55742 -1.685463,-0.80372 -0.549345,-0.24631 -1.13924,-0.53162 -1.310902,-0.63594 -0.171698,-0.10436 -0.62114,-0.33352 -0.998788,-0.50721 -0.377684,-0.17367 -0.967586,-0.46045 -1.310938,-0.63984 -0.343323,-0.17941 -1.354596,-0.70371 -2.247257,-1.16265 -2.102343,-1.08087 -4.442404,-2.34428 -4.631115,-2.50088 -0.08156,-0.0677 -0.499092,-0.29136 -0.928544,-0.49938 -0.429445,-0.20803 -1.078351,-0.57009 -1.44355,-0.80372 -0.365235,-0.23361 -0.935671,-0.56899 -1.264121,-0.74519 -1.043756,-0.55993 -1.946303,-1.08503 -2.781772,-1.61913 -0.446313,-0.28533 -1.092424,-0.67849 -1.435739,-0.87393 -0.343323,-0.19544 -1.017505,-0.61383 -1.498187,-0.92856 -0.983434,-0.64395 -1.010705,-0.66076 -2.017079,-1.24849 -0.40074,-0.23402 -0.954344,-0.60062 -1.228995,-0.81542 -0.274657,-0.2148 -0.654715,-0.49126 -0.846637,-0.61253 -0.191877,-0.12128 -0.399451,-0.3446 -0.460348,-0.4955 -0.06093,-0.1509 -0.316226,-0.75065 -0.565718,-1.33431 -0.249484,-0.58367 -0.667841,-1.69181 -0.93246,-2.46186 -0.264656,-0.77005 -0.519053,-1.46161 -0.565718,-1.5372 -0.25956,-0.41991 -2.988932,-8.53476 -3.50356,-10.41704 -0.0931,-0.34051 -0.30902,-1.04278 -0.47989,-1.5606 -0.17087,-0.51781 -0.4195,-1.36163 -0.55403,-1.87664 -0.13453,-0.51499 -0.30653,-1.1049 -0.37844,-1.3109 -0.22851,-0.65445 -1.38892,-5.12712 -1.38892,-5.35288 0,-0.11917 -0.13695,-0.7059 -0.30435,-1.30311 -0.62204,-2.21912 -0.81931,-3.00525 -0.81931,-3.26946 0,-0.14916 -0.0823,-0.61843 -0.18336,-1.04171 -0.2633,-1.10195 -0.75088,-3.45936 -0.99878,-4.82616 -0.0313,-0.17168 -0.12258,-0.67731 -0.2029,-1.1236402 -0.0803,-0.44634 -0.22229,-1.16619 -0.316,-1.59963 -0.35449,-1.63965 -0.38724,-1.53508 2.48523,-8.07613005 2.00056,-4.55550995 5.559276,-11.83231975 7.354367,-15.03253975 0.485894,-0.86623 1.081226,-1.93748 1.322601,-2.38381 1.929596,-3.56788 4.820358,-8.42341 7.206109,-12.1103 1.629697,-2.51849 1.951625,-2.99638 2.032695,-2.99638 z m 168.806799,0.0703 c 0.0275,-0.002 0.0485,0.004 0.0585,0.007 0.0807,0.0343 0.36547,0.40978 0.63597,0.83492 1.39718,2.19592 3.231729,5.10414 3.636209,5.76643 1.70666,2.79454 3.76569,6.33308 4.8301,8.30243 0.68651,1.27033 1.28781,2.36587 1.33817,2.43454 0.31766,0.4332 3.97847,7.6561598 5.18902,10.2375798 1.64714,3.51242 3.03447,6.65924 4.3931,9.97616 l 0.55792,1.35773 -0.21068,1.26409 c -0.18093,1.09923 -1.22538,6.4720602 -1.56838,8.0644302 -0.45492,2.11178 -0.67642,3.06401 -0.92466,3.99515 -0.15563,0.58367 -0.40707,1.59494 -0.56184,2.24728 -0.43038,1.81411 -1.47052,5.58309 -2.18485,7.92788 -0.74846,2.45687 -1.95147,6.23478 -2.08733,6.55454 -0.073,0.17166 -0.37252,1.04249 -0.66712,1.93514 -0.29462,0.89267 -0.73588,2.15676 -0.98321,2.8091 -0.24731,0.65233 -0.59364,1.5931 -0.76857,2.09121 -0.17494,0.49811 -0.61829,1.61572 -0.98321,2.48526 -0.75923,1.80924 -0.46069,1.52288 -3.67911,3.55428 -2.88892,1.82342 -2.9248,1.84615 -3.1329,1.93905 -0.103,0.046 -0.46819,0.26486 -0.811509,0.4877 -0.90405,0.58671 -3.44671,2.0522 -3.56212,2.0522 -0.0541,0 -0.11756,0.0421 -0.14046,0.0936 -0.0463,0.10447 -0.93498,0.60841 -1.978018,1.12364 -0.3777,0.18655 -0.71479,0.37572 -0.74913,0.42136 -0.0695,0.0924 -2.6,1.45856 -4.99393,2.69594 -0.85832,0.44367 -1.70104,0.88529 -1.87274,0.97928 -0.44064,0.24128 -6.704672,3.23 -7.178742,3.42552 -0.13737,0.0566 -0.90463,0.41672 -1.70501,0.79983 -0.80034,0.38309 -1.4935,0.69835 -1.54108,0.69835 -0.0904,0 -0.39933,0.13355 -1.90394,0.83104 -0.49822,0.23093 -1.22857,0.53786 -1.62302,0.68276 -0.39447,0.14491 -1.01998,0.3998 -1.38896,0.56572 -0.36892,0.16593 -1.23975,0.52953 -1.93513,0.8076 -0.69539,0.2781 -1.32155,0.53208 -1.39285,0.56183 -0.0713,0.0297 -0.88734,-1.02901 -1.81422,-2.35261 -2.3372,-3.33761 -6.15054,-8.73683 -8.53652,-12.08689 -1.10215,-1.54754 -2.93237,-4.12212 -4.06536,-5.71962 -1.13297,-1.5975 -2.39385,-3.36587 -2.80127,-3.92883 -0.40741,-0.56295 -1.33689,-1.86492 -2.06782,-2.89491 -0.73093,-1.03002 -2.21364,-3.10392 -3.29286,-4.6077 -1.07927,-1.50378 -2.00747,-2.82406 -2.0639,-2.93393 -0.068,-0.13249 0.12507,-0.80899 0.57349,-2.00928 0.37203,-0.99567 1.06255,-2.87776 1.53331,-4.18243 0.47075,-1.30467 1.22989,-3.41148 1.68937,-4.68181 1.14668,-3.17027 4.5216,-13.1315302 5.03296,-14.8569702 0.0712,-0.24034 0.39095,-1.2516 0.71005,-2.24728 0.3191,-0.99566 0.68207,-2.14738 0.80763,-2.55939 0.12555,-0.412 0.34252,-1.11427 0.47988,-1.56060005 1.26323,-4.10484995 2.87202,-9.58909995 3.51916,-11.98544975 0.12053,-0.44634 0.4734,-1.68233 0.78419,-2.74667 0.31079,-1.06433 0.88727,-3.19924 1.2797,-4.74424 0.39245,-1.545 0.75787,-2.89276 0.81152,-2.99246 0.0537,-0.0997 0.42563,-0.27719 0.82712,-0.39796 0.40154,-0.12076 1.37568,-0.42822 2.16535,-0.67885 0.78967,-0.25066 1.60431,-0.49624 1.8103,-0.55013 0.57013,-0.14916 5.36815,-1.5822 6.42972,-1.91954 0.9236,-0.2935 5.61613,-1.66758 7.80302,-2.28629 0.61798,-0.17483 1.46072,-0.41942 1.87274,-0.5423 0.41198,-0.1229 1.2828,-0.3756 1.935142,-0.56183 0.65229,-0.18623 1.94448,-0.55794 2.87152,-0.82711 2.88027,-0.83635 3.00534,-0.87319 4.17069,-1.16655 0.62481,-0.15728 1.28121,-0.34312 1.45917,-0.41356 0.17796,-0.0705 0.49849,-0.15722 0.71399,-0.19118 0.21549,-0.034 0.63533,-0.14106 0.92858,-0.24189 0.29317,-0.10086 0.75529,-0.24175 1.02999,-0.31213 0.27465,-0.0704 1.109968,-0.29865 1.853188,-0.50719 0.65037,-0.18247 1.2464,-0.31662 1.43967,-0.32383 z m -55.38978,65.88096 0.89346,1.20947 c 0.49052,0.66479 1.56371,2.15165 2.38771,3.30068 0.82399,1.14904 1.86515,2.57464 2.31358,3.17193 0.44846,0.59731 1.08318,1.4818 1.40846,1.96246 0.32529,0.48067 1.07171,1.52004 1.65815,2.3097 0.58642,0.78966 1.272,1.74335 1.52549,2.11852 0.25349,0.37518 0.96601,1.36238 1.58401,2.19655 0.61802,0.83418 2.07872,2.85573 3.24607,4.49065 1.16733,1.6349 2.45948,3.43405 2.8715,3.99905 0.41201,0.56498 1.08616,1.49151 1.49818,2.06001 1.15811,1.59802 4.2391,5.94998 4.88079,6.89396 l 0.57353,0.84664 -0.4994,0.66325 c -0.44853,0.59411 -3.28055,4.0327 -3.97171,4.82227 -0.15027,0.17166 -0.84838,0.98631 -1.55282,1.81029 -0.70447,0.82401 -1.31388,1.52628 -1.35383,1.56062 -0.04,0.0344 -0.43945,0.48378 -0.88565,0.99878 -0.4462,0.515 -0.84286,0.96446 -0.88176,0.99879 -0.0389,0.0343 -0.59352,0.65233 -1.23288,1.37333 -5.06271,5.70932 -13.56313,14.05419 -20.27224,19.89772 l -0.85445,0.7413 -1.39285,0.0975 c -0.76688,0.0546 -2.31667,0.16102 -3.44109,0.23409 -1.12445,0.073 -2.08937,0.16017 -2.14588,0.19508 -0.0564,0.0349 -1.74895,0.14857 -3.76105,0.24969 -3.44,0.17291 -14.3474,0.32257 -16.9559605,0.23409 -4.9904695,-0.16929 -8.5897595,-0.33767 -9.4884795,-0.44477 -0.58368,-0.0695 -1.84777,-0.179 -2.8091,-0.2419 -4.97631,-0.32554 -4.75387,-0.29158 -5.36457,-0.792 -0.59671,-0.48898 -1.79557,-1.5552 -3.37479,-3.00026 -0.54938,-0.50265 -1.25164,-1.121 -1.56062,-1.37725 -1.34147,-1.11234 -7.68754,-7.31933 -11.23638,-10.99055 -4.79723,-4.96271 -14.732104,-16.41562 -14.732104,-16.98329 0,-0.0648 0.304201,-0.53877 0.67494,-1.05342 0.370746,-0.51464 1.000411,-1.41391 1.400655,-1.99757 0.400209,-0.58366 1.374326,-1.96012 2.161427,-3.0588 0.787138,-1.09865 1.641208,-2.30657 1.900054,-2.68424 0.258802,-0.37766 1.006214,-1.41702 1.662028,-2.30969 0.65584,-0.89266 1.62412,-2.24102 2.14973,-2.99636 0.52568,-0.75533 1.52364,-2.15037 2.21609,-3.0978 0.6924,-0.94743 1.62147,-2.24509 2.06778,-2.88322 0.44635,-0.63813 1.31717,-1.84741 1.93517,-2.68814 0.61802,-0.84073 1.39753,-1.9308 1.73229,-2.42285 0.33471,-0.49204 0.78733,-1.11816 1.00656,-1.39284 0.21926,-0.27466 0.81584,-1.08929 1.32263,-1.81029 0.50676,-0.721 1.17931,-1.64801 1.49426,-2.06001 0.31495,-0.412 1.03312,-1.39518 1.59574,-2.18484 0.56259,-0.78966 1.11895,-1.55722 1.24066,-1.70497 0.21791,-0.26452 0.25669,-0.26673 2.46969,-0.15996 8.90123,0.42943 14.26685,0.53578 26.90483,0.53841 7.83079,0.002 14.71874,-0.058 17.22907,-0.14826 5.42832,-0.19511 10.3934,-0.39487 11.15835,-0.44868 l 0.60473,-0.0429 z" />
				<path style="fill:url(#linearGradient5973);fill-opacity:1;stroke:none;filter:url(#filter5202)" id="path4949" d="m -3910.8638,958.11698 c 0,0 102.3023,-148.30546 110.9034,-150.88579 8.6011,-2.58032 293.9546,6.7333 293.9546,6.7333 0,0 -267.8052,19.44975 -284.8344,22.4907 -17.0293,3.04094 -120.0236,121.66179 -120.0236,121.66179 z" transform="matrix(0.12484845,0,0,0.12484845,444.37205,-66.8494)" />
				<path style="fill:#ffff00" id="path5027" d="m -46.352569,-90.10242 c -0.0416,0.0229 -0.10469,0.0607 -0.15608,0.0897 0.11371,-0.0344 0.13793,-0.0625 0.15608,-0.0897 z" />
				<path style="fill:#ffff00" id="path5017" d="m -85.352105,-30.16737 c -0.038,-0.009 -0.06349,0.005 0.05853,0.0157 -0.01769,-0.005 -0.04557,-0.0125 -0.05853,-0.0157 z" />
				<path style="opacity:0.67181468;fill:#ffff00;stroke-width:19.60000038;stroke-miterlimit:4;stroke-dasharray:none;filter:url(#filter5540)" id="path5015" d="m -4356.4688,878.15625 c -0.032,-0.006 0.694,1.15922 0.9376,1.59375 -0.021,-0.0538 -0.075,-0.13905 -0.094,-0.1875 -0.1414,-0.26981 -0.4429,-0.77344 -0.5312,-0.96875 -0.1318,-0.18846 -0.2814,-0.43194 -0.3126,-0.4375 z" transform="matrix(0.12484845,0,0,0.12484845,444.37205,-66.8494)" />
				<path style="fill:url(#linearGradient5975);fill-opacity:1;filter:url(#filter5076)" id="path5013" d="m -2904.7828,993.88634 c -70.7671,38.15076 -145.3297,70.21616 -219.251,100.76556 -70.1401,87.9308 -137.7733,190.2087 -221.773,264.9872 38.728,36.201 91.2042,69.8548 140.06,28.8368 165.0209,-71.3896 307.6677,-193.6603 403.0025,-346.1493 -2.5901,-10.2158 -6.5143,-23.2391 -10.7408,-36.765 -12.4617,-75.70171 -44.6577,-36.89277 -91.2977,-11.67526 z" transform="matrix(0.12484845,0,0,0.12484845,444.37205,-66.8494)" />
				<path style="fill:url(#linearGradient5977);fill-opacity:1;filter:url(#filter5088)" id="path5011" d="m -4324.4488,1058.2893 c 107.6806,160.7939 268.7773,285.366 451.9994,347.9382 21.7944,-17.99 80.8776,-47.4435 88.2861,-67.1348 -82.7814,-72.9954 -165.1881,-160.8573 -234.5585,-246.6298 -91.9199,-40.4014 -172.7226,-80.1988 -248.7205,-125.09768 -58.4849,-70.29668 -74.5675,70.38588 -57.0065,90.92408 z" transform="matrix(0.12484845,0,0,0.12484845,444.37205,-66.8494)" />
				<path style="fill:#ffff00" id="path5005" d="m 45.711431,80.90874 c -0.0223,0.0208 -0.0663,0.0651 -0.0663,0.0663 0.13646,-0.12053 0.0493,-0.0486 0.0663,-0.0663 z" />
				<path style="fill:url(#radialGradient5979);fill-opacity:1;filter:url(#filter5088)" id="path5092" d="m -4296.9375,947.84375 c -34.0026,-0.41383 -41.6311,93.91065 -27.5,110.43745 107.6806,160.794 268.7779,285.3653 452,347.9376 21.7944,-17.9901 80.8727,-47.4338 88.2813,-67.125 -82.7814,-72.9955 -165.1921,-160.8525 -234.5626,-246.625 -91.9198,-40.4014 -172.7208,-80.1949 -248.7187,-125.0938 -11.4228,-13.72982 -21.2469,-19.43081 -29.5,-19.53125 z m 1456.2187,13.375 c -16.153,-0.0137 -37.8274,18.4714 -64.0624,32.65625 -70.7672,38.1508 -145.3288,70.2318 -219.25,100.7812 -70.1402,87.9309 -137.7816,190.1903 -221.7813,264.9688 38.728,36.201 91.2067,69.8618 140.0625,28.8438 165.0209,-71.3896 307.6652,-193.6673 403,-346.1563 -2.5901,-10.2158 -6.5235,-23.2241 -10.75,-36.75 -5.452,-33.1195 -14.6552,-44.33306 -27.2188,-44.34375 z" transform="matrix(0.12484845,0,0,0.12484845,444.37205,-66.8494)" />
				<path style="fill:url(#linearGradient5981);fill-opacity:1;stroke:none;filter:url(#filter5156)" id="path5142" d="m -3189.3416,337.13225 c 0,0 243.2755,-68.11714 257.872,-77.84815 14.5965,-9.73102 17.0293,-9.73102 17.0293,-21.8948 0,-12.16377 -2.4328,-65.68438 -2.4328,-65.68438 l 17.0293,92.44468 -289.4978,90.01194 z" transform="matrix(0.12484845,0,0,0.12484845,444.37205,-66.8494)" />
				<path style="fill:url(#linearGradient5983);fill-opacity:1;stroke:none;filter:url(#filter5174)" id="path5168" d="m -2897.411,288.47715 c 0,0 -272.4686,72.98265 -279.7669,75.4154 -7.2982,2.43276 -143.5325,418.43384 -143.5325,418.43384 0,0 141.0998,-384.37527 153.2636,-396.53904 12.1637,-12.16378 270.0358,-87.57918 270.0358,-97.3102 z" transform="matrix(0.12484845,0,0,0.12484845,444.37205,-66.8494)" />
				<path style="fill:#ffffff;stroke:none;filter:url(#filter5216)" id="path5206" d="m -3559.1299,89.040403 c -3.4405,-17.202175 0,-275.234793 0,-275.234793 l 65.3682,-17.20218 c 0,0 -30.9639,6.88087 -48.1661,24.08305 -17.2021,17.20217 8.6011,225.348486 12.0415,242.550661 3.4405,17.202175 190.9442,166.861089 190.9442,166.861089 z" transform="matrix(0.12484845,0,0,0.12484845,444.37205,-66.8494)" />
				<path style="fill:none;stroke:url(#linearGradient5987);stroke-width:20;stroke-linecap:butt;stroke-linejoin:miter;stroke-miterlimit:4;stroke-opacity:1;stroke-dasharray:none;filter:url(#filter5254)" id="path5240" d="m -3578.0523,-186.19439 c 0,0 -8.6011,252.871965 -6.8809,268.353922 0.8944,8.050052 -102.619,70.609988 -195.3988,135.423218 -85.6555,59.83635 -160.8923,122.6094 -165.8469,122.6094 -10.3213,0 -302.7582,-80.85022 -302.7582,-80.85022" transform="matrix(0.12484845,0,0,0.12484845,444.37205,-66.8494)" />
				<path style="fill:url(#linearGradient5989);fill-opacity:1;stroke:none;filter:url(#filter5276)" id="path5266" d="m -3953.0597,364.2752 -292.437,-89.45131 -151.3791,275.23479 c 0,0 141.0578,-240.83044 158.26,-244.27088 17.2022,-3.44043 285.5561,58.4874 285.5561,58.4874 z" transform="matrix(0.12484845,0,0,0.12484845,444.37205,-66.8494)" />
				<path style="opacity:0.85198556;fill:none;stroke:url(#linearGradient5991);stroke-width:20;stroke-linecap:butt;stroke-linejoin:miter;stroke-miterlimit:4;stroke-opacity:1;stroke-dasharray:none;filter:url(#filter5342)" id="path5288" d="m -3953.0597,371.15607 c 35.2918,128.18354 78.536,281.5217 141.0578,436.93524" transform="matrix(0.12484845,0,0,0.12484845,444.37205,-66.8494)" />
				<path style="fill:url(#radialGradient5993);stroke:none;filter:url(#filter5368)" id="path5354" d="m -3925.5363,369.43585 c 86.3611,-84.64847 238.2908,-197.78262 357.657,-266.69091 13.2411,0.0306 53.475,27.58068 53.475,27.58068 -21.4625,-9.28365 -27.4257,-18.47278 -51.9159,-20.10999 -126.8999,82.60018 -243.7408,170.54728 -359.2161,259.22022 z" transform="matrix(0.12484845,0,0,0.12484845,444.37205,-66.8494)" />
				<path style="fill:url(#linearGradient5995);fill-opacity:1;stroke:none;filter:url(#filter5374)" id="path5372" d="m -3806.8412,753.90445 c 0,0 1.7202,22.36283 22.3628,30.96391 20.6426,8.60109 414.5724,0 428.3342,0 13.7617,0 36.1245,-51.60652 36.1245,-51.60652 0,0 -21.5027,61.92783 -26.6634,63.64805 -5.1606,1.72021 -436.0751,-2.58033 -444.6762,-2.58033 -8.6011,0 -15.4819,-40.42511 -15.4819,-40.42511 z" transform="matrix(0.12484845,0,0,0.12484845,444.37205,-66.8494)" />
				<path style="fill:url(#linearGradient5997);fill-opacity:1;stroke:none;filter:url(#filter5408)" id="path5394" d="m -3884.251,-238.11294 c 68.1414,-3.65441 145.447,3.15082 217.5875,12.05841 l 41.6974,-16.51277 c -79.8087,-10.16541 -140.6529,-9.709 -209.0597,-7.33386 z" transform="matrix(0.12484845,0,0,0.12484845,444.37205,-66.8494)" />
				<path style="fill:url(#linearGradient5999);fill-opacity:1;stroke:none;filter:url(#filter5438)" id="path5420" d="m -4183.1514,-40.098159 c -35.9126,77.687658 -52.6977,178.944629 -69.2262,280.517699 0,0 -8.2149,-21.02713 -13.3443,-55.04696 -8.3257,-55.21851 39.0953,-190.7463088 48.3082,-198.104791 z" transform="matrix(0.12484845,0,0,0.12484845,444.37205,-66.8494)" />
				<path style="fill:url(#linearGradient6001);fill-opacity:1;stroke:none;filter:url(#filter5670)" id="path5640" d="m -2878.4634,-28.178889 c 71.8768,77.921876 230.0116,521.719849 185.1932,552.556559 -29.056,19.99164 -24.228,-3.20253 -36.8014,-39.02535 4.6741,50.3304 7.5162,67.95787 17.7925,77.46042 l 87.2272,-67.80102 c -2.0571,-178.98412 -75.126,-357.96823 -160.5198,-536.952349 z" transform="matrix(0.12484845,0,0,0.12484845,444.37205,-66.8494)" />
				<path style="opacity:0.58687259;fill:url(#linearGradient6003);fill-opacity:1;stroke:none;filter:url(#filter5700)" id="path5674" d="m -3232.2886,-234.36048 c 0,0 78.1064,45.34192 150.4987,90.20713 56.453,34.98683 110.1053,71.706115 116.135,73.213527 13.7617,3.440411 98.0524,25.803262 98.0524,25.803262 l -92.8918,-10.321305 z" transform="matrix(0.12484845,0,0,0.12484845,444.37205,-66.8494)" />
				<path style="fill:url(#linearGradient6005);fill-opacity:1;stroke:none;filter:url(#filter5730)" id="path5712" d="m -4478.7017,541.48366 c 0,0 26.7603,41.35683 36.4913,55.95336 9.731,14.59653 38.9241,102.17571 38.9241,102.17571 l -17.0293,-114.33948 z" transform="matrix(0.12484845,0,0,0.12484845,444.37205,-66.8494)" />
				<path style="fill:url(#linearGradient6007);fill-opacity:1;stroke:none;filter:url(#filter5752)" id="path5742" d="m -4480.7171,521.60423 c 0,0 44.6751,31.20842 59.2716,31.20842 14.5965,0 113.0366,-247.30621 134.9314,-266.76825 21.8948,-19.46204 -17.0293,55.95336 -17.0293,55.95336 l -114.3394,231.11171 -58.3862,-38.92407 z" transform="matrix(0.12484845,0,0,0.12484845,444.37205,-66.8494)" />
				<path style="opacity:0.28185329;fill:none;stroke:url(#radialGradient6009);stroke-width:15;stroke-linecap:butt;stroke-linejoin:miter;stroke-miterlimit:4;stroke-opacity:1;stroke-dasharray:none;filter:url(#filter5814)" id="path5756" d="m -4223.2624,-18.049959 c 103.1303,-89.293341 262.66,-200.684261 384.3752,-245.708241" transform="matrix(0.12484845,0,0,0.12484845,444.37205,-66.8494)" />
			</g>
		</g>
	</g>
</svg>
